<svg width="48" height="48" viewBox="0 0 48 48" fill="none" xmlns="http://www.w3.org/2000/svg">
<g id="Icon / envelope">
<path id="icon" d="M39.8138 8.50928H8.70284C6.55813 8.50928 4.81396 10.2534 4.81396 12.3982V35.7314C4.81396 37.8761 6.55813 39.6203 8.70284 39.6203H39.8138C41.9586 39.6203 43.7027 37.8761 43.7027 35.7314V12.3982C43.7027 10.2534 41.9586 8.50928 39.8138 8.50928ZM39.8138 12.3982V13.3918L24.2583 25.492L8.70284 13.3937V12.3982H39.8138ZM8.70284 35.7314V18.317L23.0645 29.4878C23.4049 29.7553 23.8254 29.9006 24.2583 29.9006C24.6913 29.9006 25.1117 29.7553 25.4522 29.4878L39.8138 18.317L39.8177 35.7314H8.70284Z" fill="black"/>
</g>
</svg>
