<svg width="48" height="48" viewBox="0 0 48 48" fill="none" xmlns="http://www.w3.org/2000/svg">
<g id="Icon / map">
<g id="icon">
<path d="M23.7373 27.6199C28.0267 27.6199 31.515 24.1316 31.515 19.8421C31.515 15.5527 28.0267 12.0644 23.7373 12.0644C19.4478 12.0644 15.9595 15.5527 15.9595 19.8421C15.9595 24.1316 19.4478 27.6199 23.7373 27.6199ZM23.7373 15.9532C25.882 15.9532 27.6261 17.6974 27.6261 19.8421C27.6261 21.9868 25.882 23.731 23.7373 23.731C21.5925 23.731 19.8484 21.9868 19.8484 19.8421C19.8484 17.6974 21.5925 15.9532 23.7373 15.9532ZM22.6095 42.8137C22.9386 43.0487 23.3329 43.1751 23.7373 43.1751C24.1417 43.1751 24.536 43.0487 24.8651 42.8137C25.4562 42.3957 39.3492 32.3643 39.2928 19.8421C39.2928 11.2652 32.3142 4.28662 23.7373 4.28662C15.1604 4.28662 8.18181 11.2652 8.18181 19.8324C8.12542 32.3643 22.0184 42.3957 22.6095 42.8137ZM23.7373 8.1755C30.1715 8.1755 35.4039 13.408 35.4039 19.8518C35.4448 28.4813 26.8717 36.2298 23.7373 38.7712C20.6048 36.2279 12.0299 28.4774 12.0707 19.8421C12.0707 13.408 17.3032 8.1755 23.7373 8.1755Z" fill="black"/>
<path d="M23.7373 27.6199C28.0267 27.6199 31.515 24.1316 31.515 19.8421C31.515 15.5527 28.0267 12.0644 23.7373 12.0644C19.4478 12.0644 15.9595 15.5527 15.9595 19.8421C15.9595 24.1316 19.4478 27.6199 23.7373 27.6199ZM23.7373 15.9532C25.882 15.9532 27.6261 17.6974 27.6261 19.8421C27.6261 21.9868 25.882 23.731 23.7373 23.731C21.5925 23.731 19.8484 21.9868 19.8484 19.8421C19.8484 17.6974 21.5925 15.9532 23.7373 15.9532ZM22.6095 42.8137C22.9386 43.0487 23.3329 43.1751 23.7373 43.1751C24.1417 43.1751 24.536 43.0487 24.8651 42.8137C25.4562 42.3957 39.3492 32.3643 39.2928 19.8421C39.2928 11.2652 32.3142 4.28662 23.7373 4.28662C15.1604 4.28662 8.18181 11.2652 8.18181 19.8324C8.12542 32.3643 22.0184 42.3957 22.6095 42.8137ZM23.7373 8.1755C30.1715 8.1755 35.4039 13.408 35.4039 19.8518C35.4448 28.4813 26.8717 36.2298 23.7373 38.7712C20.6048 36.2279 12.0299 28.4774 12.0707 19.8421C12.0707 13.408 17.3032 8.1755 23.7373 8.1755Z" fill="black"/>
</g>
</g>
</svg>
