<svg xmlns="http://www.w3.org/2000/svg" width="16" height="17" viewBox="0 0 16 17" fill="none">
  <path fill-rule="evenodd" clip-rule="evenodd" d="M13.6576 5.36123L13.5669 5.19919C13.4498 5.00325 13.2848 4.8404 13.0873 4.72605L8.73821 2.21772C8.54131 2.10349 8.31776 2.04313 8.09007 2.04272H7.90211C7.67441 2.04313 7.45087 2.10349 7.25396 2.21772L2.9049 4.73253C2.70849 4.84612 2.54535 5.00927 2.43176 5.20568L2.34101 5.36771C2.22678 5.56465 2.16642 5.78819 2.16602 6.01586V11.039C2.16642 11.2667 2.22678 11.4902 2.34101 11.6871L2.43176 11.8492C2.54829 12.0433 2.71078 12.2058 2.9049 12.3223L7.26044 14.8306C7.45638 14.9472 7.68057 15.0078 7.90859 15.0056H8.09007C8.31776 15.0053 8.54131 14.9449 8.73821 14.8306L13.0873 12.3158C13.2856 12.2048 13.4494 12.041 13.5604 11.8427L13.6576 11.6807C13.7705 11.4832 13.8308 11.26 13.8326 11.0325V6.00938C13.8322 5.78171 13.7719 5.55816 13.6576 5.36123ZM7.90211 3.33902H8.09007L11.8882 5.52975L7.99933 7.77233L4.11045 5.52975L7.90211 3.33902ZM8.64747 13.3853L12.4391 11.1945L12.5363 11.0325V6.65104L8.64747 8.90011V13.3853Z" fill="black"/>
</svg>
