<svg xmlns="http://www.w3.org/2000/svg" width="40" height="40" version="1.0" viewBox="0 0 30 30"><defs><clipPath id="a"><path d="M10 0h10v12H10Zm0 0"/></clipPath><clipPath id="b"><path d="M15 13.137 8.328 6.465 15-.207l6.672 6.672Zm0 0"/></clipPath><clipPath id="c"><path d="M15 13.137 8.328 6.465 15-.207l6.672 6.672Zm0 0"/></clipPath><clipPath id="d"><path d="M10 17h10v12.031H10Zm0 0"/></clipPath><clipPath id="e"><path d="M15 29.031 8.328 22.36 15 15.687l6.672 6.672Zm0 0"/></clipPath><clipPath id="f"><path d="m15 15.895 6.672 6.671L15 29.238l-6.672-6.672Zm0 0"/></clipPath><clipPath id="g"><path d="M16 9h13v11H16Zm0 0"/></clipPath><clipPath id="h"><path d="m21.566 21.082-6.671-6.672 6.671-6.672 6.672 6.672Zm0 0"/></clipPath><clipPath id="i"><path d="m15 14.516 6.672 6.671 6.672-6.671-6.672-6.672Zm0 0"/></clipPath><clipPath id="j"><path d="M1 9h13v11H1Zm0 0"/></clipPath><clipPath id="k"><path d="M8.43 21.082 1.758 14.41 8.43 7.738l6.672 6.672Zm0 0"/></clipPath><clipPath id="l"><path d="M15 14.516 8.328 7.844l-6.672 6.672 6.672 6.671Zm0 0"/></clipPath></defs><g clip-path="url(#a)"><g clip-path="url(#b)"><g clip-path="url(#c)"><path d="M11.715 9.852a4.645 4.645 0 0 0 6.566 0 4.637 4.637 0 0 0 0-6.567L15 0l-3.285 3.285a4.645 4.645 0 0 0 0 6.567Zm0 0"/></g></g></g><g clip-path="url(#d)"><g clip-path="url(#e)"><g clip-path="url(#f)"><path d="M18.281 19.18a4.645 4.645 0 0 0-6.566 0 4.645 4.645 0 0 0 0 6.566L15 29.031l3.281-3.285a4.637 4.637 0 0 0 0-6.566Zm0 0"/></g></g></g><g clip-path="url(#g)"><g clip-path="url(#h)"><g clip-path="url(#i)"><path d="M18.285 17.8a4.645 4.645 0 0 1 6.566-6.57l3.286 3.286-3.285 3.285a4.645 4.645 0 0 1-6.567 0Zm0 0"/></g></g></g><g clip-path="url(#j)"><g clip-path="url(#k)"><g clip-path="url(#l)"><path d="M11.715 11.23a4.645 4.645 0 0 1-6.566 6.57l-3.286-3.284 3.285-3.286a4.645 4.645 0 0 1 6.567 0Zm0 0"/></g></g></g></svg>