<?xml version="1.0" encoding="UTF-8"?>
<svg id="Layer_3" data-name="Layer 3" xmlns="http://www.w3.org/2000/svg" xmlns:xlink="http://www.w3.org/1999/xlink" viewBox="0 0 1080 300">
  <defs>
    <style>
      .cls-1 {
        fill: #002b4d;
        font-family: Futura-Medium, Futura;
        font-size: 90.79px;
        font-weight: 500;
        letter-spacing: .2em;
      }

      .cls-2 {
        fill: url(#radial-gradient);
      }
    </style>
    <radialGradient id="radial-gradient" cx="534" cy="147.02" fx="534" fy="147.02" r="135.59" gradientUnits="userSpaceOnUse">
      <stop offset="0" stop-color="#d4aa71" stop-opacity=".3"/>
      <stop offset=".36" stop-color="#d4aa71"/>
      <stop offset="1" stop-color="#b97e16"/>
    </radialGradient>
  </defs>
  <g id="logo_coloured" data-name="logo coloured">
    <path id="logo" class="cls-2" d="M557.02,245.78c-9.5-9.65-15.31-22.91-15.2-37.51,.12-14.6,6.14-27.77,15.79-37.27,9.64-9.49,22.91-15.3,37.51-15.19,14.6,.12,27.77,6.14,37.26,15.78,9.5,9.64,15.32,22.91,15.2,37.51,0,.67-.02,1.34-.06,2l-.13,16.7-2.68-.02h-.69s-5.52-.05-5.52-.05l-20.4-.17-4.84-.04-8.89-.07-8.88-.07c-.3,.02-.62,.02-.93,.02-5.17-.04-9.83-2.17-13.19-5.59-3.36-3.41-5.42-8.12-5.38-13.28,.04-5.17,2.17-9.83,5.59-13.19s8.11-5.42,13.28-5.38c5.17,.04,9.83,2.18,13.19,5.59,3.02,3.07,4.99,7.18,5.33,11.74h.05s-.03,3.24-.03,3.24h-.06s-8.82-.07-8.82-.07h0s.01-1.83,.01-1.83c0-2.66-1.09-5.07-2.82-6.83s-4.21-2.91-6.92-2.94c-2.71-.02-5.17,1.06-6.97,2.82s-2.91,4.21-2.93,6.92c-.02,2.71,1.06,5.17,2.82,6.97,1.77,1.79,4.21,2.91,6.92,2.93h.12s.01,0,.01,0h.01s.01,0,.01,0h.01s.01,0,.01,0c.25,0,.49-.01,.74-.04v.05s43.02,.34,43.02,.34l.07-8.3v-.02s0-.03,0-.03l.03-2.94v-.02s0-.03,0-.03v-.02c-.3-11.53-5.06-21.98-12.62-29.65-7.89-8.02-18.85-13.04-30.99-13.13-12.14-.1-23.17,4.74-31.19,12.64s-13.04,18.85-13.13,30.99c-.1,12.14,4.75,23.18,12.64,31.2,7.89,8.02,18.85,13.03,30.99,13.12h0s.9,0,.9,0h.01s.02,0,.02,0l43.02,.34,.14-17.15,8.88,.07-.13,17.15-.04,4.89-.03,4.02-8.89-.07-16.95-.13-12.6-.1-14.15-.11h-.01s-.01,0-.01,0h-.02s-.01,0-.01,0h-.01s-.02,0-.02,0h0s-.01,0-.01,0h-.02s-.02,0-.02,0h-.01s-.01,0-.01,0h-.01s-.01,0-.01,0h-.01s-.01,0-.01,0h-.01s-.01,0-.01,0c-14.59-.12-27.77-6.14-37.26-15.78Zm-137.57-38.48h0s0,.03,0,.03h0s0,.03,0,.03h0s0,.03,0,.03h0s0,.03,0,.03v.02s0,.02,0,.02h0s0,.02,0,.02v.02s0,.01,0,.01h0s0,.03,0,.03h0s0,.03,0,.03l-.11,14.15-.1,12.6-.13,16.95-.07,8.89,4.02,.03,4.89,.04,17.15,.13,.07-8.88-17.15-.14,.34-43.02v-.02s0-.01,0-.01v-.9s0,0,0,0c.09-12.14,5.1-23.09,13.12-30.99s19.06-12.74,31.2-12.64c12.14,.1,23.1,5.11,30.99,13.13,7.9,8.02,12.73,19.05,12.64,31.19-.09,12.14-5.11,23.1-13.13,30.99-7.68,7.56-18.12,12.32-29.65,12.62h-.02s-.03,0-.03,0h-.02s-2.94-.02-2.94-.02h-.03s-.02,0-.02,0l-8.3-.07,.34-43.02h.05c-.02-.25-.04-.49-.04-.74h0s0-.03,0-.03h0s0-.03,0-.03h0s0-.14,0-.14c.02-2.71,1.14-5.15,2.93-6.92,1.8-1.76,4.26-2.84,6.97-2.82,2.7,.02,5.16,1.14,6.92,2.93s2.84,4.26,2.82,6.97c-.02,2.71-1.14,5.15-2.94,6.92s-4.18,2.81-6.83,2.82h-1.83s0,0,0,0l-.07,8.82v.06s3.24,.03,3.24,.03v-.05c4.55-.34,8.66-2.31,11.73-5.33,3.41-3.36,5.55-8.03,5.59-13.19,.04-5.17-2.02-9.86-5.38-13.28s-8.02-5.55-13.19-5.59c-5.17-.04-9.87,2.02-13.28,5.38s-5.54,8.03-5.59,13.19c0,.31,0,.62,.02,.93l-.07,8.88-.07,8.89-.04,4.84-.17,20.4-.04,5.52v.69s-.03,2.68-.03,2.68l16.7,.13c.66,.03,1.32,.05,2,.06,14.6,.12,27.86-5.7,37.51-15.2,9.64-9.49,15.66-22.66,15.78-37.26,.11-14.6-5.7-27.86-15.19-37.51s-22.67-15.67-37.27-15.79c-14.6-.11-27.86,5.7-37.51,15.2-9.64,9.49-15.67,22.66-15.78,37.26Zm229.09-120.56h0s0-.03,0-.03h0s0-.03,0-.03h0s0-.03,0-.03h0s0-.03,0-.03v-.02s0-.02,0-.02h0s0-.02,0-.02v-.02s0-.01,0-.01h0s0-.03,0-.03h0s0-.03,0-.03l.11-14.15,.1-12.6,.13-16.95,.07-8.89-4.02-.03-4.89-.04-17.15-.13-.07,8.88,17.15,.14-.34,43.02v.02s0,.01,0,.01v.9s0,0,0,0c-.09,12.14-5.1,23.09-13.12,30.99-8.02,7.89-19.06,12.74-31.2,12.64-12.14-.1-23.1-5.11-30.99-13.13-7.9-8.02-12.73-19.05-12.64-31.19,.09-12.14,5.11-23.1,13.13-30.99,7.68-7.56,18.12-12.32,29.65-12.62h.02s.03,0,.03,0h.02s2.94,.02,2.94,.02h.03s.02,0,.02,0l8.3,.07-.34,43.02h-.05c.02,.25,.04,.49,.04,.74h0s0,.03,0,.03h0s0,.03,0,.03h0s0,.14,0,.14c-.02,2.71-1.14,5.15-2.93,6.92-1.8,1.76-4.26,2.84-6.97,2.82-2.7-.02-5.16-1.14-6.92-2.93s-2.84-4.26-2.82-6.97c.02-2.71,1.14-5.15,2.94-6.92s4.18-2.81,6.83-2.82h1.83s0,0,0,0l.07-8.82v-.06s-3.24-.03-3.24-.03v.05c-4.55,.34-8.66,2.31-11.73,5.33-3.41,3.36-5.55,8.03-5.59,13.19-.04,5.17,2.02,9.86,5.38,13.28s8.02,5.55,13.19,5.59c5.17,.04,9.87-2.02,13.28-5.38s5.54-8.03,5.59-13.19c0-.31,0-.62-.02-.93l.07-8.88,.07-8.89,.04-4.84,.17-20.4,.04-5.52v-.69s.03-2.68,.03-2.68l-16.7-.13c-.66-.03-1.32-.05-2-.06-14.6-.12-27.86,5.7-37.51,15.2-9.64,9.49-15.66,22.66-15.78,37.26-.11,14.6,5.7,27.86,15.19,37.51,9.49,9.64,22.67,15.67,37.27,15.79,14.6,.11,27.86-5.7,37.51-15.2,9.64-9.49,15.67-22.66,15.78-37.26Zm-174.82-54.26h-.01s-.01,0-.01,0h-.01s-.01,0-.01,0h-.01s-.01,0-.01,0h-.01s-.01,0-.01,0h-.02s-.02,0-.02,0h-.01s0,0,0,0h-.02s-.01,0-.01,0h-.01s-.02,0-.02,0h-.01s-.01,0-.01,0l-14.15-.11-12.6-.1-16.95-.13-8.89-.07-.03,4.02-.04,4.89-.13,17.15,8.88,.07,.14-17.15,43.02,.34h.02s.01,0,.01,0h.9s0,0,0,0c12.14,.09,23.09,5.1,30.99,13.12s12.74,19.06,12.64,31.2c-.1,12.14-5.11,23.1-13.13,30.99-8.02,7.9-19.05,12.73-31.19,12.64-12.14-.09-23.1-5.11-30.99-13.13-7.56-7.68-12.32-18.12-12.62-29.65v-.02s0-.03,0-.03v-.02s.02-2.94,.02-2.94v-.03s0-.02,0-.02l.07-8.3,43.02,.34v.05c.25-.02,.49-.04,.74-.04h.01s.01,0,.01,0h.01s.01,0,.01,0h.01s.12,0,.12,0c2.71,.02,5.15,1.14,6.92,2.93,1.76,1.8,2.84,4.26,2.82,6.97-.02,2.7-1.14,5.16-2.93,6.92s-4.26,2.84-6.97,2.82c-2.71-.02-5.15-1.14-6.92-2.94s-2.81-4.18-2.82-6.83v-1.83s0,0,0,0l-8.82-.07h-.06s-.03,3.24-.03,3.24h.05c.34,4.55,2.31,8.66,5.33,11.73,3.36,3.41,8.03,5.55,13.19,5.59,5.17,.04,9.86-2.02,13.28-5.38s5.55-8.02,5.59-13.19c.04-5.17-2.02-9.87-5.38-13.28s-8.03-5.54-13.19-5.59c-.31,0-.62,0-.93,.02l-8.88-.07-8.89-.07-4.84-.04-20.4-.17-5.52-.04h-.69s-2.68-.03-2.68-.03l-.13,16.7c-.03,.66-.05,1.32-.06,2-.12,14.6,5.7,27.86,15.2,37.51,9.49,9.64,22.66,15.66,37.26,15.78,14.6,.11,27.86-5.7,37.51-15.19s15.67-22.67,15.79-37.27c.11-14.6-5.7-27.86-15.2-37.51s-22.66-15.67-37.26-15.78Zm-63.1,125.85c6.79,.05,12.35-5.42,12.4-12.21,.05-6.79-5.42-12.34-12.21-12.41-6.79-.06-12.35,5.41-12.4,12.21-.05,6.8,5.41,12.35,12.21,12.41Zm134.68,112.07c.05-6.79-5.42-12.35-12.21-12.4-6.79-.05-12.34,5.42-12.41,12.21-.06,6.79,5.41,12.35,12.21,12.4,6.8,.05,12.35-5.41,12.41-12.21Zm124.28-122.34c.06-6.8-5.41-12.35-12.21-12.4-6.79-.05-12.34,5.42-12.4,12.21-.06,6.79,5.41,12.35,12.21,12.4,6.79,.05,12.35-5.41,12.4-12.21ZM535.04,11.44c-6.8-.06-12.35,5.41-12.4,12.21-.05,6.79,5.42,12.34,12.21,12.4,6.79,.06,12.35-5.41,12.4-12.21,.05-6.79-5.41-12.35-12.21-12.4Z"/>
    <text id="CLEAN" class="cls-1" transform="translate(707.11 181.73)"><tspan x="0" y="0">CLEAN</tspan></text>
    <text id="IMPEC" class="cls-1" transform="translate(0 180.67)"><tspan x="0" y="0">IMPEC</tspan></text>
  </g>
</svg>