<svg width="48" height="48" viewBox="0 0 48 48" fill="none" xmlns="http://www.w3.org/2000/svg">
<g id="Icon / phone">
<path id="icon" d="M35.0948 24.6341C34.9144 24.4534 34.7001 24.31 34.4642 24.2122C34.2283 24.1144 33.9754 24.064 33.7201 24.064C33.4647 24.064 33.2118 24.1144 32.9759 24.2122C32.7401 24.31 32.5258 24.4534 32.3453 24.6341L29.2459 27.7336C27.809 27.3058 25.1276 26.3336 23.4282 24.6341C21.7287 22.9347 20.7565 20.2533 20.3287 18.8164L23.4282 15.7169C23.6089 15.5365 23.7523 15.3222 23.8501 15.0863C23.9479 14.8504 23.9983 14.5976 23.9983 14.3422C23.9983 14.0868 23.9479 13.834 23.8501 13.5981C23.7523 13.3622 23.6089 13.1479 23.4282 12.9675L15.6504 5.18974C15.47 5.00901 15.2557 4.86563 15.0198 4.76781C14.7839 4.66998 14.5311 4.61963 14.2757 4.61963C14.0203 4.61963 13.7675 4.66998 13.5316 4.76781C13.2957 4.86563 13.0814 5.00901 12.901 5.18974L7.62765 10.4631C6.88877 11.2019 6.47266 12.2169 6.48821 13.2533C6.53294 16.0222 7.26599 25.6394 14.8454 33.2188C22.4248 40.7982 32.042 41.5293 34.8128 41.576H34.8673C35.8939 41.576 36.8642 41.1716 37.5992 40.4366L42.8725 35.1632C43.0533 34.9828 43.1966 34.7685 43.2945 34.5327C43.3923 34.2968 43.4426 34.0439 43.4426 33.7885C43.4426 33.5332 43.3923 33.2803 43.2945 33.0444C43.1966 32.8085 43.0533 32.5942 42.8725 32.4138L35.0948 24.6341ZM34.8478 37.6852C32.4212 37.6443 24.1184 36.993 17.5948 30.4674C11.0499 23.9225 10.416 15.5905 10.3771 13.2125L14.2757 9.31389L19.304 14.3422L16.7898 16.8564C16.5613 17.0847 16.3933 17.3665 16.3009 17.6761C16.2086 17.9857 16.1948 18.3134 16.261 18.6297C16.3076 18.8533 17.449 24.1558 20.6768 27.3836C23.9045 30.6113 29.207 31.7527 29.4306 31.7994C29.7467 31.8673 30.0748 31.8547 30.3847 31.7626C30.6946 31.6705 30.9763 31.502 31.204 31.2724L33.7201 28.7583L38.7484 33.7866L34.8478 37.6852Z" fill="black"/>
</g>
</svg>
