<svg width="24" height="25" viewBox="0 0 24 25" fill="none" xmlns="http://www.w3.org/2000/svg">
<g id="Icon / Youtube">
<path id="Vector" d="M21.5914 7.70301C21.4775 7.28041 21.2549 6.89501 20.9457 6.58518C20.6366 6.27534 20.2517 6.05187 19.8294 5.93701C18.2634 5.50701 11.9984 5.50001 11.9984 5.50001C11.9984 5.50001 5.73438 5.49301 4.16738 5.90401C3.7453 6.02415 3.3612 6.25078 3.05194 6.56214C2.74269 6.8735 2.51866 7.25913 2.40138 7.68201C1.98838 9.24801 1.98438 12.496 1.98438 12.496C1.98438 12.496 1.98038 15.76 2.39038 17.31C2.62038 18.167 3.29538 18.844 4.15338 19.075C5.73538 19.505 11.9834 19.512 11.9834 19.512C11.9834 19.512 18.2484 19.519 19.8144 19.109C20.2369 18.9943 20.6221 18.7714 20.932 18.4622C21.2419 18.153 21.4658 17.7682 21.5814 17.346C21.9954 15.781 21.9984 12.534 21.9984 12.534C21.9984 12.534 22.0184 9.26901 21.5914 7.70301ZM9.99438 15.505L9.99938 9.50501L15.2064 12.51L9.99438 15.505Z" fill="black"/>
</g>
</svg>
